<?xml version="1.0" encoding="UTF-8" standalone="no"?>
<svg width="614px" height="173px" viewBox="0 0 614 173" version="1.1" xmlns="http://www.w3.org/2000/svg" xmlns:xlink="http://www.w3.org/1999/xlink">
    <title>computers</title>
    <desc>Created with Sketch.</desc>
    <defs></defs>
    <g id="Page-1" stroke="none" stroke-width="1" fill="none" fill-rule="evenodd">
        <g id="illustration">
            <path d="M495.158,146.675 L297.455,146.675 C289.205,146.675 282.455,139.925 282.455,131.675 L282.455,15.906 C282.455,7.656 289.205,0.906 297.455,0.906 L495.158,0.906 C503.408,0.906 510.158,7.656 510.158,15.906 L510.158,131.675 C510.158,139.925 503.408,146.675 495.158,146.675" id="Fill-296" fill="#30414F"></path>
            <path d="M290.304,129.628 L502.309,129.628 L502.309,8.293 L290.304,8.293 L290.304,129.628 Z" id="Fill-297" fill="#EDEDE9"></path>
            <path d="M397.485,4.478 C397.485,3.827 396.958,3.299 396.307,3.299 C395.656,3.299 395.128,3.827 395.128,4.478 C395.128,5.129 395.656,5.656 396.307,5.656 C396.958,5.656 397.485,5.129 397.485,4.478" id="Fill-298" fill="#68737D"></path>
            <path d="M372.395,168.364 L421.376,168.364 L421.376,146.675 L372.395,146.675 L372.395,168.364 Z" id="Fill-299" fill="#8E9D9A"></path>
            <path d="M446.693,172.356 L345.92,172.356 C343.724,172.356 341.928,170.56 341.928,168.364 C341.928,166.168 343.724,164.372 345.92,164.372 L446.693,164.372 C448.889,164.372 450.685,166.168 450.685,168.364 C450.685,170.56 448.889,172.356 446.693,172.356" id="Fill-300" fill="#EEF2EF"></path>
            <path d="M296.207,65.921 L433.049,65.921 L433.049,13.909 L296.207,13.909 L296.207,65.921 Z" id="Fill-301" fill="#79BD9A"></path>
            <path d="M440.422,65.921 L495.39,65.921 L495.39,13.909 L440.422,13.909 L440.422,65.921 Z" id="Fill-302" fill="#CFD3CB"></path>
            <path d="M440.422,91.927 L495.39,91.927 L495.39,73.79 L440.422,73.79 L440.422,91.927 Z" id="Fill-303" fill="#5B8EAC"></path>
            <path d="M296.207,91.549 L433.049,91.549 L433.049,73.79 L296.207,73.79 L296.207,91.549 Z" id="Fill-304" fill="#C0DBFD"></path>
            <path d="M296.207,108.38 L495.39,108.38 L495.39,96.392 L296.207,96.392 L296.207,108.38 Z" id="Fill-305" fill="#CFD3CB"></path>
            <path d="M296.207,124.249 L495.39,124.249 L495.39,112.261 L296.207,112.261 L296.207,124.249 Z" id="Fill-306" fill="#CFD3CB"></path>
            <path d="M36.903,172.356 L6.675,172.356 C3.375,172.356 0.675,169.656 0.675,166.356 L0.675,108.452 C0.675,105.152 3.375,102.452 6.675,102.452 L36.903,102.452 C40.203,102.452 42.903,105.152 42.903,108.452 L42.903,166.356 C42.903,169.656 40.203,172.356 36.903,172.356" id="Fill-307" fill="#30414F"></path>
            <path d="M2.131,164.181 L41.447,164.181 L41.447,105.994 L2.131,105.994 L2.131,164.181 Z" id="Fill-308" fill="#EDEDE9"></path>
            <path d="M3.225,133.63 L28.603,133.63 L28.603,108.688 L3.225,108.688 L3.225,133.63 Z" id="Fill-309" fill="#79BD9A"></path>
            <path d="M29.97,133.63 L40.164,133.63 L40.164,108.688 L29.97,108.688 L29.97,133.63 Z" id="Fill-310" fill="#CFD3CB"></path>
            <path d="M29.97,146.101 L40.164,146.101 L40.164,137.404 L29.97,137.404 L29.97,146.101 Z" id="Fill-311" fill="#5B8EAC"></path>
            <path d="M3.225,145.92 L28.603,145.92 L28.603,137.404 L3.225,137.404 L3.225,145.92 Z" id="Fill-312" fill="#C0DBFD"></path>
            <path d="M3.225,153.992 L40.164,153.992 L40.164,148.243 L3.225,148.243 L3.225,153.992 Z" id="Fill-313" fill="#CFD3CB"></path>
            <path d="M3.225,161.602 L40.164,161.602 L40.164,155.853 L3.225,155.853 L3.225,161.602 Z" id="Fill-314" fill="#CFD3CB"></path>
            <path d="M23.056,104.107 C23.056,103.59 22.636,103.171 22.119,103.171 C21.602,103.171 21.182,103.59 21.182,104.107 C21.182,104.625 21.602,105.044 22.119,105.044 C22.636,105.044 23.056,104.625 23.056,104.107" id="Fill-315" fill="#CFD3CB"></path>
            <path d="M607.325,172.356 L534.748,172.356 C531.448,172.356 528.748,169.656 528.748,166.356 L528.748,70.953 C528.748,67.653 531.448,64.953 534.748,64.953 L607.325,64.953 C610.625,64.953 613.325,67.653 613.325,70.953 L613.325,166.356 C613.325,169.656 610.625,172.356 607.325,172.356" id="Fill-316" fill="#30414F"></path>
            <path d="M534.518,163.355 L607.555,163.355 L607.555,73.954 L534.518,73.954 L534.518,163.355 Z" id="Fill-317" fill="#EDEDE9"></path>
            <path d="M536.551,116.187 L583.935,116.187 L583.935,75.552 L536.551,75.552 L536.551,116.187 Z" id="Fill-318" fill="#79BD9A"></path>
            <path d="M586.488,116.187 L605.522,116.187 L605.522,75.552 L586.488,75.552 L586.488,116.187 Z" id="Fill-319" fill="#CFD3CB"></path>
            <path d="M586.488,136.505 L605.522,136.505 L605.522,122.336 L586.488,122.336 L586.488,136.505 Z" id="Fill-320" fill="#5B8EAC"></path>
            <path d="M536.551,136.21 L583.935,136.21 L583.935,122.336 L536.551,122.336 L536.551,136.21 Z" id="Fill-321" fill="#C0DBFD"></path>
            <path d="M536.551,149.36 L605.522,149.36 L605.522,139.994 L536.551,139.994 L536.551,149.36 Z" id="Fill-322" fill="#CFD3CB"></path>
            <path d="M536.551,161.758 L605.522,161.758 L605.522,152.392 L536.551,152.392 L536.551,161.758 Z" id="Fill-323" fill="#CFD3CB"></path>
            <path d="M572.983,67.496 C572.983,66.702 572.338,66.057 571.544,66.057 C570.749,66.057 570.105,66.702 570.105,67.496 C570.105,68.291 570.749,68.935 571.544,68.935 C572.338,68.935 572.983,68.291 572.983,67.496" id="Fill-324" fill="#CFD3CB"></path>
            <path d="M236.723,170.529 L91.296,170.529 C83.046,170.529 76.296,163.779 76.296,155.529 L76.296,73.226 C76.296,64.976 83.046,58.226 91.296,58.226 L236.723,58.226 C244.973,58.226 251.723,64.976 251.723,73.226 L251.723,155.529 C251.723,163.779 244.973,170.529 236.723,170.529" id="Fill-325" fill="#30414F"></path>
            <path d="M55.737,170.529 L276.349,170.529 L276.349,163.293 L55.737,163.293 L55.737,170.529 Z" id="Fill-326" fill="#D7DDDA"></path>
            <path d="M59.391,172.356 L272.695,172.356 C274.705,172.356 276.349,171.534 276.349,170.529 L55.737,170.529 C55.737,171.534 57.381,172.356 59.391,172.356" id="Fill-327" fill="#B7BDBC"></path>
            <path d="M82.343,157.396 L245.676,157.396 L245.676,63.917 L82.343,63.917 L82.343,157.396 Z" id="Fill-328" fill="#EDEDE9"></path>
            <path d="M145.132,165.853 L186.954,165.853 C187.731,165.853 188.368,164.701 188.368,163.293 L143.718,163.293 C143.718,164.701 144.354,165.853 145.132,165.853" id="Fill-329" fill="#8E9D9A"></path>
            <path d="M164.918,60.977 C164.918,60.476 164.511,60.069 164.01,60.069 C163.508,60.069 163.101,60.476 163.101,60.977 C163.101,61.479 163.508,61.885 164.01,61.885 C164.511,61.885 164.918,61.479 164.918,60.977" id="Fill-330" fill="#68737D"></path>
            <path d="M86.891,108.314 L192.317,108.314 L192.317,68.243 L86.891,68.243 L86.891,108.314 Z" id="Fill-331" fill="#79BD9A"></path>
            <path d="M197.997,108.314 L240.346,108.314 L240.346,68.243 L197.997,68.243 L197.997,108.314 Z" id="Fill-332" fill="#CFD3CB"></path>
            <path d="M197.997,128.35 L240.346,128.35 L240.346,114.377 L197.997,114.377 L197.997,128.35 Z" id="Fill-333" fill="#5B8EAC"></path>
            <path d="M86.891,128.059 L192.317,128.059 L192.317,114.377 L86.891,114.377 L86.891,128.059 Z" id="Fill-334" fill="#C0DBFD"></path>
            <path d="M86.891,141.026 L240.346,141.026 L240.346,131.79 L86.891,131.79 L86.891,141.026 Z" id="Fill-335" fill="#CFD3CB"></path>
            <path d="M86.891,153.251 L240.346,153.251 L240.346,144.016 L86.891,144.016 L86.891,153.251 Z" id="Fill-336" fill="#CFD3CB"></path>
        </g>
    </g>
</svg>